<mxfile host="Electron" modified="2023-09-29T14:00:01.327Z" agent="Mozilla/5.0 (Windows NT 10.0; Win64; x64) AppleWebKit/537.36 (KHTML, like Gecko) draw.io/21.6.8 Chrome/114.0.5735.289 Electron/25.5.0 Safari/537.36" etag="jef-rni90XTIv2rmymKL" version="21.6.8" type="device">
  <diagram name="Page-1" id="m9r3YthOI66yOQh_E5zI">
    <mxGraphModel dx="1830" dy="830" grid="0" gridSize="10" guides="1" tooltips="1" connect="1" arrows="1" fold="1" page="0" pageScale="1" pageWidth="827" pageHeight="1169" math="0" shadow="0">
      <root>
        <mxCell id="0" />
        <mxCell id="1" parent="0" />
        <mxCell id="7OzX4kmP341dpppWjmYD-2" value="tweet" style="whiteSpace=wrap;html=1;align=center;" vertex="1" parent="1">
          <mxGeometry x="90" y="574" width="100" height="40" as="geometry" />
        </mxCell>
        <mxCell id="7OzX4kmP341dpppWjmYD-3" value="tag" style="shape=ext;margin=3;double=1;whiteSpace=wrap;html=1;align=center;" vertex="1" parent="1">
          <mxGeometry x="90" y="354" width="100" height="40" as="geometry" />
        </mxCell>
        <mxCell id="7OzX4kmP341dpppWjmYD-4" value="mention" style="shape=ext;margin=3;double=1;whiteSpace=wrap;html=1;align=center;" vertex="1" parent="1">
          <mxGeometry x="313" y="429" width="100" height="40" as="geometry" />
        </mxCell>
        <mxCell id="7OzX4kmP341dpppWjmYD-5" value="gebruiker" style="whiteSpace=wrap;html=1;align=center;" vertex="1" parent="1">
          <mxGeometry x="534" y="574" width="100" height="40" as="geometry" />
        </mxCell>
        <mxCell id="7OzX4kmP341dpppWjmYD-6" value="quote" style="whiteSpace=wrap;html=1;align=center;" vertex="1" parent="1">
          <mxGeometry x="90" y="725" width="100" height="40" as="geometry" />
        </mxCell>
        <mxCell id="7OzX4kmP341dpppWjmYD-7" value="tweets" style="shape=rhombus;perimeter=rhombusPerimeter;whiteSpace=wrap;html=1;align=center;aspect=fixed;" vertex="1" parent="1">
          <mxGeometry x="328" y="559" width="70" height="70" as="geometry" />
        </mxCell>
        <mxCell id="7OzX4kmP341dpppWjmYD-8" value="quotes" style="shape=rhombus;perimeter=rhombusPerimeter;whiteSpace=wrap;html=1;align=center;aspect=fixed;" vertex="1" parent="1">
          <mxGeometry x="3" y="633" width="70" height="70" as="geometry" />
        </mxCell>
        <mxCell id="7OzX4kmP341dpppWjmYD-9" value="retweets" style="shape=rhombus;perimeter=rhombusPerimeter;whiteSpace=wrap;html=1;align=center;aspect=fixed;" vertex="1" parent="1">
          <mxGeometry x="328" y="721" width="70" height="70" as="geometry" />
        </mxCell>
        <mxCell id="7OzX4kmP341dpppWjmYD-10" value="likes" style="shape=rhombus;perimeter=rhombusPerimeter;whiteSpace=wrap;html=1;align=center;aspect=fixed;" vertex="1" parent="1">
          <mxGeometry x="328" y="640" width="70" height="70" as="geometry" />
        </mxCell>
        <mxCell id="7OzX4kmP341dpppWjmYD-11" value="mentions" style="shape=rhombus;perimeter=rhombusPerimeter;whiteSpace=wrap;html=1;align=center;aspect=fixed;" vertex="1" parent="1">
          <mxGeometry x="434" y="486" width="70" height="70" as="geometry" />
        </mxCell>
        <mxCell id="7OzX4kmP341dpppWjmYD-13" value="" style="endArrow=none;html=1;rounded=0;exitX=0.5;exitY=1;exitDx=0;exitDy=0;entryX=0.5;entryY=0;entryDx=0;entryDy=0;" edge="1" parent="1" source="7OzX4kmP341dpppWjmYD-2" target="7OzX4kmP341dpppWjmYD-6">
          <mxGeometry relative="1" as="geometry">
            <mxPoint x="369" y="613" as="sourcePoint" />
            <mxPoint x="529" y="613" as="targetPoint" />
          </mxGeometry>
        </mxCell>
        <mxCell id="7OzX4kmP341dpppWjmYD-14" value="" style="shape=link;html=1;rounded=0;entryX=0;entryY=0;entryDx=0;entryDy=0;exitX=1;exitY=1;exitDx=0;exitDy=0;" edge="1" parent="1" source="7OzX4kmP341dpppWjmYD-8" target="7OzX4kmP341dpppWjmYD-6">
          <mxGeometry relative="1" as="geometry">
            <mxPoint x="369" y="613" as="sourcePoint" />
            <mxPoint x="529" y="613" as="targetPoint" />
          </mxGeometry>
        </mxCell>
        <mxCell id="7OzX4kmP341dpppWjmYD-15" value="N" style="resizable=0;html=1;whiteSpace=wrap;align=right;verticalAlign=bottom;" connectable="0" vertex="1" parent="7OzX4kmP341dpppWjmYD-14">
          <mxGeometry x="1" relative="1" as="geometry">
            <mxPoint x="9" y="-3" as="offset" />
          </mxGeometry>
        </mxCell>
        <mxCell id="7OzX4kmP341dpppWjmYD-16" value="" style="endArrow=none;html=1;rounded=0;entryX=0;entryY=1;entryDx=0;entryDy=0;exitX=1;exitY=0;exitDx=0;exitDy=0;" edge="1" parent="1" source="7OzX4kmP341dpppWjmYD-8" target="7OzX4kmP341dpppWjmYD-2">
          <mxGeometry relative="1" as="geometry">
            <mxPoint x="369" y="613" as="sourcePoint" />
            <mxPoint x="529" y="613" as="targetPoint" />
          </mxGeometry>
        </mxCell>
        <mxCell id="7OzX4kmP341dpppWjmYD-17" value="1" style="resizable=0;html=1;whiteSpace=wrap;align=right;verticalAlign=bottom;" connectable="0" vertex="1" parent="7OzX4kmP341dpppWjmYD-16">
          <mxGeometry x="1" relative="1" as="geometry">
            <mxPoint x="-1" as="offset" />
          </mxGeometry>
        </mxCell>
        <mxCell id="7OzX4kmP341dpppWjmYD-19" value="" style="verticalLabelPosition=bottom;verticalAlign=top;html=1;shape=mxgraph.basic.arc;startAngle=0.33708216907011956;endAngle=0.7611227026130816;rotation=342;" vertex="1" parent="1">
          <mxGeometry x="125" y="646" width="30" height="30" as="geometry" />
        </mxCell>
        <mxCell id="7OzX4kmP341dpppWjmYD-21" value="" style="shape=rhombus;double=1;perimeter=rhombusPerimeter;whiteSpace=wrap;html=1;align=center;" vertex="1" parent="1">
          <mxGeometry x="105" y="449" width="70" height="70" as="geometry" />
        </mxCell>
        <mxCell id="7OzX4kmP341dpppWjmYD-22" value="" style="shape=link;html=1;rounded=0;exitX=0.5;exitY=0;exitDx=0;exitDy=0;entryX=0.5;entryY=1;entryDx=0;entryDy=0;" edge="1" parent="1" source="7OzX4kmP341dpppWjmYD-21" target="7OzX4kmP341dpppWjmYD-3">
          <mxGeometry relative="1" as="geometry">
            <mxPoint x="369" y="613" as="sourcePoint" />
            <mxPoint x="529" y="613" as="targetPoint" />
          </mxGeometry>
        </mxCell>
        <mxCell id="7OzX4kmP341dpppWjmYD-23" value="N" style="resizable=0;html=1;whiteSpace=wrap;align=right;verticalAlign=bottom;" connectable="0" vertex="1" parent="7OzX4kmP341dpppWjmYD-22">
          <mxGeometry x="1" relative="1" as="geometry">
            <mxPoint x="14" y="18" as="offset" />
          </mxGeometry>
        </mxCell>
        <mxCell id="7OzX4kmP341dpppWjmYD-24" value="" style="endArrow=none;html=1;rounded=0;exitX=0.5;exitY=1;exitDx=0;exitDy=0;entryX=0.5;entryY=0;entryDx=0;entryDy=0;" edge="1" parent="1" source="7OzX4kmP341dpppWjmYD-21" target="7OzX4kmP341dpppWjmYD-2">
          <mxGeometry relative="1" as="geometry">
            <mxPoint x="369" y="613" as="sourcePoint" />
            <mxPoint x="529" y="613" as="targetPoint" />
          </mxGeometry>
        </mxCell>
        <mxCell id="7OzX4kmP341dpppWjmYD-25" value="1" style="resizable=0;html=1;whiteSpace=wrap;align=right;verticalAlign=bottom;" connectable="0" vertex="1" parent="7OzX4kmP341dpppWjmYD-24">
          <mxGeometry x="1" relative="1" as="geometry">
            <mxPoint x="11" as="offset" />
          </mxGeometry>
        </mxCell>
        <mxCell id="7OzX4kmP341dpppWjmYD-27" value="" style="shape=rhombus;double=1;perimeter=rhombusPerimeter;whiteSpace=wrap;html=1;align=center;" vertex="1" parent="1">
          <mxGeometry x="218" y="486" width="70" height="70" as="geometry" />
        </mxCell>
        <mxCell id="7OzX4kmP341dpppWjmYD-28" value="" style="endArrow=none;html=1;rounded=0;entryX=1;entryY=0;entryDx=0;entryDy=0;exitX=0;exitY=1;exitDx=0;exitDy=0;" edge="1" parent="1" source="7OzX4kmP341dpppWjmYD-27" target="7OzX4kmP341dpppWjmYD-2">
          <mxGeometry relative="1" as="geometry">
            <mxPoint x="369" y="613" as="sourcePoint" />
            <mxPoint x="529" y="613" as="targetPoint" />
          </mxGeometry>
        </mxCell>
        <mxCell id="7OzX4kmP341dpppWjmYD-29" value="1" style="resizable=0;html=1;whiteSpace=wrap;align=right;verticalAlign=bottom;" connectable="0" vertex="1" parent="7OzX4kmP341dpppWjmYD-28">
          <mxGeometry x="1" relative="1" as="geometry" />
        </mxCell>
        <mxCell id="7OzX4kmP341dpppWjmYD-30" value="" style="shape=link;html=1;rounded=0;entryX=0;entryY=1;entryDx=0;entryDy=0;exitX=1;exitY=0;exitDx=0;exitDy=0;" edge="1" parent="1" source="7OzX4kmP341dpppWjmYD-27" target="7OzX4kmP341dpppWjmYD-4">
          <mxGeometry relative="1" as="geometry">
            <mxPoint x="369" y="613" as="sourcePoint" />
            <mxPoint x="529" y="613" as="targetPoint" />
          </mxGeometry>
        </mxCell>
        <mxCell id="7OzX4kmP341dpppWjmYD-31" value="N" style="resizable=0;html=1;whiteSpace=wrap;align=right;verticalAlign=bottom;" connectable="0" vertex="1" parent="7OzX4kmP341dpppWjmYD-30">
          <mxGeometry x="1" relative="1" as="geometry" />
        </mxCell>
        <mxCell id="7OzX4kmP341dpppWjmYD-32" value="" style="shape=link;html=1;rounded=0;entryX=1;entryY=1;entryDx=0;entryDy=0;exitX=0;exitY=0;exitDx=0;exitDy=0;" edge="1" parent="1" source="7OzX4kmP341dpppWjmYD-11" target="7OzX4kmP341dpppWjmYD-4">
          <mxGeometry relative="1" as="geometry">
            <mxPoint x="369" y="613" as="sourcePoint" />
            <mxPoint x="529" y="613" as="targetPoint" />
          </mxGeometry>
        </mxCell>
        <mxCell id="7OzX4kmP341dpppWjmYD-33" value="N" style="resizable=0;html=1;whiteSpace=wrap;align=right;verticalAlign=bottom;" connectable="0" vertex="1" parent="7OzX4kmP341dpppWjmYD-32">
          <mxGeometry x="1" relative="1" as="geometry">
            <mxPoint x="13" as="offset" />
          </mxGeometry>
        </mxCell>
        <mxCell id="7OzX4kmP341dpppWjmYD-34" value="" style="endArrow=none;html=1;rounded=0;entryX=0;entryY=0;entryDx=0;entryDy=0;exitX=1;exitY=1;exitDx=0;exitDy=0;" edge="1" parent="1" source="7OzX4kmP341dpppWjmYD-11" target="7OzX4kmP341dpppWjmYD-5">
          <mxGeometry relative="1" as="geometry">
            <mxPoint x="369" y="613" as="sourcePoint" />
            <mxPoint x="529" y="613" as="targetPoint" />
          </mxGeometry>
        </mxCell>
        <mxCell id="7OzX4kmP341dpppWjmYD-35" value="1" style="resizable=0;html=1;whiteSpace=wrap;align=right;verticalAlign=bottom;" connectable="0" vertex="1" parent="7OzX4kmP341dpppWjmYD-34">
          <mxGeometry x="1" relative="1" as="geometry">
            <mxPoint x="4" y="-1" as="offset" />
          </mxGeometry>
        </mxCell>
        <mxCell id="7OzX4kmP341dpppWjmYD-37" value="" style="endArrow=none;html=1;rounded=0;entryX=0;entryY=0.5;entryDx=0;entryDy=0;exitX=1;exitY=0.5;exitDx=0;exitDy=0;" edge="1" parent="1" source="7OzX4kmP341dpppWjmYD-7" target="7OzX4kmP341dpppWjmYD-5">
          <mxGeometry relative="1" as="geometry">
            <mxPoint x="369" y="613" as="sourcePoint" />
            <mxPoint x="529" y="613" as="targetPoint" />
          </mxGeometry>
        </mxCell>
        <mxCell id="7OzX4kmP341dpppWjmYD-38" value="1" style="resizable=0;html=1;whiteSpace=wrap;align=right;verticalAlign=bottom;" connectable="0" vertex="1" parent="7OzX4kmP341dpppWjmYD-37">
          <mxGeometry x="1" relative="1" as="geometry">
            <mxPoint x="-1" y="2" as="offset" />
          </mxGeometry>
        </mxCell>
        <mxCell id="7OzX4kmP341dpppWjmYD-39" value="" style="shape=link;html=1;rounded=0;entryX=1;entryY=0.5;entryDx=0;entryDy=0;exitX=0;exitY=0.5;exitDx=0;exitDy=0;" edge="1" parent="1" source="7OzX4kmP341dpppWjmYD-7" target="7OzX4kmP341dpppWjmYD-2">
          <mxGeometry relative="1" as="geometry">
            <mxPoint x="369" y="613" as="sourcePoint" />
            <mxPoint x="529" y="613" as="targetPoint" />
          </mxGeometry>
        </mxCell>
        <mxCell id="7OzX4kmP341dpppWjmYD-40" value="N" style="resizable=0;html=1;whiteSpace=wrap;align=right;verticalAlign=bottom;" connectable="0" vertex="1" parent="7OzX4kmP341dpppWjmYD-39">
          <mxGeometry x="1" relative="1" as="geometry">
            <mxPoint x="12" as="offset" />
          </mxGeometry>
        </mxCell>
        <mxCell id="7OzX4kmP341dpppWjmYD-43" value="" style="endArrow=none;html=1;rounded=0;exitX=1;exitY=0.5;exitDx=0;exitDy=0;entryX=0;entryY=1;entryDx=0;entryDy=0;" edge="1" parent="1" source="7OzX4kmP341dpppWjmYD-10" target="7OzX4kmP341dpppWjmYD-5">
          <mxGeometry relative="1" as="geometry">
            <mxPoint x="369" y="613" as="sourcePoint" />
            <mxPoint x="526" y="653" as="targetPoint" />
          </mxGeometry>
        </mxCell>
        <mxCell id="7OzX4kmP341dpppWjmYD-44" value="M" style="resizable=0;html=1;whiteSpace=wrap;align=right;verticalAlign=bottom;" connectable="0" vertex="1" parent="7OzX4kmP341dpppWjmYD-43">
          <mxGeometry x="1" relative="1" as="geometry" />
        </mxCell>
        <mxCell id="7OzX4kmP341dpppWjmYD-45" value="" style="endArrow=none;html=1;rounded=0;exitX=0;exitY=0.5;exitDx=0;exitDy=0;entryX=1;entryY=1;entryDx=0;entryDy=0;" edge="1" parent="1" source="7OzX4kmP341dpppWjmYD-10" target="7OzX4kmP341dpppWjmYD-2">
          <mxGeometry relative="1" as="geometry">
            <mxPoint x="369" y="613" as="sourcePoint" />
            <mxPoint x="529" y="613" as="targetPoint" />
          </mxGeometry>
        </mxCell>
        <mxCell id="7OzX4kmP341dpppWjmYD-46" value="N" style="resizable=0;html=1;whiteSpace=wrap;align=right;verticalAlign=bottom;" connectable="0" vertex="1" parent="7OzX4kmP341dpppWjmYD-45">
          <mxGeometry x="1" relative="1" as="geometry">
            <mxPoint x="12" y="2" as="offset" />
          </mxGeometry>
        </mxCell>
        <mxCell id="7OzX4kmP341dpppWjmYD-47" value="" style="endArrow=none;html=1;rounded=0;entryX=0.25;entryY=1;entryDx=0;entryDy=0;exitX=1;exitY=0.5;exitDx=0;exitDy=0;" edge="1" parent="1" source="7OzX4kmP341dpppWjmYD-9" target="7OzX4kmP341dpppWjmYD-5">
          <mxGeometry relative="1" as="geometry">
            <mxPoint x="369" y="613" as="sourcePoint" />
            <mxPoint x="529" y="613" as="targetPoint" />
          </mxGeometry>
        </mxCell>
        <mxCell id="7OzX4kmP341dpppWjmYD-48" value="N" style="resizable=0;html=1;whiteSpace=wrap;align=right;verticalAlign=bottom;" connectable="0" vertex="1" parent="7OzX4kmP341dpppWjmYD-47">
          <mxGeometry x="1" relative="1" as="geometry">
            <mxPoint x="10" y="17" as="offset" />
          </mxGeometry>
        </mxCell>
        <mxCell id="7OzX4kmP341dpppWjmYD-49" value="" style="endArrow=none;html=1;rounded=0;entryX=0.75;entryY=1;entryDx=0;entryDy=0;exitX=0;exitY=0.5;exitDx=0;exitDy=0;" edge="1" parent="1" source="7OzX4kmP341dpppWjmYD-9" target="7OzX4kmP341dpppWjmYD-2">
          <mxGeometry relative="1" as="geometry">
            <mxPoint x="369" y="613" as="sourcePoint" />
            <mxPoint x="293" y="743" as="targetPoint" />
          </mxGeometry>
        </mxCell>
        <mxCell id="7OzX4kmP341dpppWjmYD-50" value="M" style="resizable=0;html=1;whiteSpace=wrap;align=right;verticalAlign=bottom;" connectable="0" vertex="1" parent="7OzX4kmP341dpppWjmYD-49">
          <mxGeometry x="1" relative="1" as="geometry">
            <mxPoint x="2" y="17" as="offset" />
          </mxGeometry>
        </mxCell>
        <mxCell id="7OzX4kmP341dpppWjmYD-51" value="inhoud" style="ellipse;whiteSpace=wrap;html=1;align=center;aspect=fixed;" vertex="1" parent="1">
          <mxGeometry x="-32" y="505" width="80" height="32" as="geometry" />
        </mxCell>
        <mxCell id="7OzX4kmP341dpppWjmYD-52" value="&lt;u&gt;id&lt;/u&gt;" style="ellipse;whiteSpace=wrap;html=1;align=center;aspect=fixed;" vertex="1" parent="1">
          <mxGeometry x="-58" y="578" width="80" height="32" as="geometry" />
        </mxCell>
        <mxCell id="7OzX4kmP341dpppWjmYD-53" value="tijdstip" style="ellipse;whiteSpace=wrap;html=1;align=center;aspect=fixed;" vertex="1" parent="1">
          <mxGeometry x="-58" y="539" width="80" height="32" as="geometry" />
        </mxCell>
        <mxCell id="7OzX4kmP341dpppWjmYD-54" value="locatie" style="ellipse;whiteSpace=wrap;html=1;align=center;aspect=fixed;" vertex="1" parent="1">
          <mxGeometry x="10" y="473" width="80" height="32" as="geometry" />
        </mxCell>
        <mxCell id="7OzX4kmP341dpppWjmYD-56" value="" style="endArrow=none;html=1;rounded=0;exitX=1;exitY=0.5;exitDx=0;exitDy=0;entryX=0;entryY=0.5;entryDx=0;entryDy=0;" edge="1" parent="1" source="7OzX4kmP341dpppWjmYD-52" target="7OzX4kmP341dpppWjmYD-2">
          <mxGeometry relative="1" as="geometry">
            <mxPoint x="247" y="632" as="sourcePoint" />
            <mxPoint x="407" y="632" as="targetPoint" />
          </mxGeometry>
        </mxCell>
        <mxCell id="7OzX4kmP341dpppWjmYD-59" value="" style="endArrow=none;html=1;rounded=0;exitX=1;exitY=0.5;exitDx=0;exitDy=0;entryX=0;entryY=0.25;entryDx=0;entryDy=0;" edge="1" parent="1" source="7OzX4kmP341dpppWjmYD-53" target="7OzX4kmP341dpppWjmYD-2">
          <mxGeometry relative="1" as="geometry">
            <mxPoint x="32" y="604" as="sourcePoint" />
            <mxPoint x="100" y="604" as="targetPoint" />
          </mxGeometry>
        </mxCell>
        <mxCell id="7OzX4kmP341dpppWjmYD-60" value="" style="endArrow=none;html=1;rounded=0;exitX=1;exitY=0.5;exitDx=0;exitDy=0;entryX=0;entryY=0;entryDx=0;entryDy=0;" edge="1" parent="1" source="7OzX4kmP341dpppWjmYD-51" target="7OzX4kmP341dpppWjmYD-2">
          <mxGeometry relative="1" as="geometry">
            <mxPoint x="42" y="614" as="sourcePoint" />
            <mxPoint x="110" y="614" as="targetPoint" />
          </mxGeometry>
        </mxCell>
        <mxCell id="7OzX4kmP341dpppWjmYD-61" value="" style="endArrow=none;html=1;rounded=0;exitX=1;exitY=1;exitDx=0;exitDy=0;entryX=0.25;entryY=0;entryDx=0;entryDy=0;" edge="1" parent="1" source="7OzX4kmP341dpppWjmYD-54" target="7OzX4kmP341dpppWjmYD-2">
          <mxGeometry relative="1" as="geometry">
            <mxPoint x="52" y="624" as="sourcePoint" />
            <mxPoint x="120" y="624" as="targetPoint" />
          </mxGeometry>
        </mxCell>
        <mxCell id="7OzX4kmP341dpppWjmYD-62" value="inhoud" style="ellipse;whiteSpace=wrap;html=1;align=center;aspect=fixed;" vertex="1" parent="1">
          <mxGeometry x="175" y="296" width="80" height="32" as="geometry" />
        </mxCell>
        <mxCell id="7OzX4kmP341dpppWjmYD-63" value="nr" style="ellipse;whiteSpace=wrap;html=1;align=center;aspect=fixed;" vertex="1" parent="1">
          <mxGeometry x="25" y="296" width="80" height="32" as="geometry" />
        </mxCell>
        <mxCell id="7OzX4kmP341dpppWjmYD-64" value="nr" style="ellipse;whiteSpace=wrap;html=1;align=center;aspect=fixed;" vertex="1" parent="1">
          <mxGeometry x="323" y="362" width="80" height="32" as="geometry" />
        </mxCell>
        <mxCell id="7OzX4kmP341dpppWjmYD-65" value="" style="endArrow=none;html=1;rounded=0;exitX=1;exitY=1;exitDx=0;exitDy=0;entryX=0.25;entryY=0;entryDx=0;entryDy=0;" edge="1" parent="1" source="7OzX4kmP341dpppWjmYD-63" target="7OzX4kmP341dpppWjmYD-3">
          <mxGeometry relative="1" as="geometry">
            <mxPoint x="247" y="632" as="sourcePoint" />
            <mxPoint x="407" y="632" as="targetPoint" />
          </mxGeometry>
        </mxCell>
        <mxCell id="7OzX4kmP341dpppWjmYD-67" value="" style="endArrow=none;html=1;rounded=0;exitX=0;exitY=1;exitDx=0;exitDy=0;entryX=0.75;entryY=0;entryDx=0;entryDy=0;" edge="1" parent="1" source="7OzX4kmP341dpppWjmYD-62" target="7OzX4kmP341dpppWjmYD-3">
          <mxGeometry relative="1" as="geometry">
            <mxPoint x="103" y="333" as="sourcePoint" />
            <mxPoint x="125" y="364" as="targetPoint" />
          </mxGeometry>
        </mxCell>
        <mxCell id="7OzX4kmP341dpppWjmYD-68" value="" style="endArrow=none;html=1;rounded=0;exitX=0.5;exitY=1;exitDx=0;exitDy=0;entryX=0.5;entryY=0;entryDx=0;entryDy=0;" edge="1" parent="1" source="7OzX4kmP341dpppWjmYD-64" target="7OzX4kmP341dpppWjmYD-4">
          <mxGeometry relative="1" as="geometry">
            <mxPoint x="197" y="333" as="sourcePoint" />
            <mxPoint x="175" y="364" as="targetPoint" />
          </mxGeometry>
        </mxCell>
        <mxCell id="7OzX4kmP341dpppWjmYD-69" value="" style="endArrow=none;html=1;rounded=0;dashed=1;dashPattern=1 2;" edge="1" parent="1">
          <mxGeometry relative="1" as="geometry">
            <mxPoint x="58" y="318" as="sourcePoint" />
            <mxPoint x="71" y="318" as="targetPoint" />
          </mxGeometry>
        </mxCell>
        <mxCell id="7OzX4kmP341dpppWjmYD-70" value="" style="resizable=0;html=1;whiteSpace=wrap;align=right;verticalAlign=bottom;" connectable="0" vertex="1" parent="7OzX4kmP341dpppWjmYD-69">
          <mxGeometry x="1" relative="1" as="geometry" />
        </mxCell>
        <mxCell id="7OzX4kmP341dpppWjmYD-71" value="" style="endArrow=none;html=1;rounded=0;dashed=1;dashPattern=1 2;" edge="1" parent="1">
          <mxGeometry relative="1" as="geometry">
            <mxPoint x="356.5" y="384" as="sourcePoint" />
            <mxPoint x="369.5" y="384" as="targetPoint" />
          </mxGeometry>
        </mxCell>
        <mxCell id="7OzX4kmP341dpppWjmYD-72" value="" style="resizable=0;html=1;whiteSpace=wrap;align=right;verticalAlign=bottom;" connectable="0" vertex="1" parent="7OzX4kmP341dpppWjmYD-71">
          <mxGeometry x="1" relative="1" as="geometry" />
        </mxCell>
        <mxCell id="7OzX4kmP341dpppWjmYD-73" value="tijdstip" style="ellipse;whiteSpace=wrap;html=1;align=center;aspect=fixed;" vertex="1" parent="1">
          <mxGeometry x="323" y="815" width="80" height="32" as="geometry" />
        </mxCell>
        <mxCell id="7OzX4kmP341dpppWjmYD-74" value="" style="endArrow=none;html=1;rounded=0;exitX=0.5;exitY=1;exitDx=0;exitDy=0;entryX=0.5;entryY=0;entryDx=0;entryDy=0;" edge="1" parent="1" source="7OzX4kmP341dpppWjmYD-9" target="7OzX4kmP341dpppWjmYD-73">
          <mxGeometry relative="1" as="geometry">
            <mxPoint x="247" y="632" as="sourcePoint" />
            <mxPoint x="407" y="632" as="targetPoint" />
          </mxGeometry>
        </mxCell>
        <mxCell id="7OzX4kmP341dpppWjmYD-75" value="&lt;u&gt;gebruikersnaam&lt;/u&gt;" style="ellipse;whiteSpace=wrap;html=1;align=center;" vertex="1" parent="1">
          <mxGeometry x="684" y="578" width="95" height="32" as="geometry" />
        </mxCell>
        <mxCell id="7OzX4kmP341dpppWjmYD-76" value="" style="endArrow=none;html=1;rounded=0;entryX=0;entryY=0.5;entryDx=0;entryDy=0;exitX=1;exitY=0.5;exitDx=0;exitDy=0;" edge="1" parent="1" source="7OzX4kmP341dpppWjmYD-5" target="7OzX4kmP341dpppWjmYD-75">
          <mxGeometry relative="1" as="geometry">
            <mxPoint x="658" y="558" as="sourcePoint" />
            <mxPoint x="407" y="632" as="targetPoint" />
          </mxGeometry>
        </mxCell>
        <mxCell id="7OzX4kmP341dpppWjmYD-77" value="locatie" style="ellipse;whiteSpace=wrap;html=1;align=center;aspect=fixed;" vertex="1" parent="1">
          <mxGeometry x="589" y="494" width="80" height="32" as="geometry" />
        </mxCell>
        <mxCell id="7OzX4kmP341dpppWjmYD-78" value="locatie" style="ellipse;whiteSpace=wrap;html=1;align=center;aspect=fixed;" vertex="1" parent="1">
          <mxGeometry x="660" y="534" width="80" height="32" as="geometry" />
        </mxCell>
        <mxCell id="7OzX4kmP341dpppWjmYD-79" value="" style="endArrow=none;html=1;rounded=0;entryX=0;entryY=1;entryDx=0;entryDy=0;exitX=0.5;exitY=0;exitDx=0;exitDy=0;" edge="1" parent="1" source="7OzX4kmP341dpppWjmYD-5" target="7OzX4kmP341dpppWjmYD-77">
          <mxGeometry relative="1" as="geometry">
            <mxPoint x="247" y="632" as="sourcePoint" />
            <mxPoint x="407" y="632" as="targetPoint" />
          </mxGeometry>
        </mxCell>
        <mxCell id="7OzX4kmP341dpppWjmYD-80" value="" style="endArrow=none;html=1;rounded=0;entryX=0;entryY=0.5;entryDx=0;entryDy=0;exitX=0.75;exitY=0;exitDx=0;exitDy=0;" edge="1" parent="1" source="7OzX4kmP341dpppWjmYD-5" target="7OzX4kmP341dpppWjmYD-78">
          <mxGeometry relative="1" as="geometry">
            <mxPoint x="247" y="632" as="sourcePoint" />
            <mxPoint x="407" y="632" as="targetPoint" />
          </mxGeometry>
        </mxCell>
      </root>
    </mxGraphModel>
  </diagram>
</mxfile>
